<svg xmlns="http://www.w3.org/2000/svg" width="180" height="180" viewBox="0 0 180 180">
  <!-- Shopping list clipboard -->
  <rect x="34" y="22" width="112" height="146" rx="11" ry="11" fill="#00A651" stroke="#00A651" stroke-width="5"/>
  <rect x="45" y="34" width="90" height="123" fill="white"/>
  
  <!-- Clipboard clip -->
  <rect x="67" y="11" width="45" height="22" rx="5" ry="5" fill="#00A651"/>
  
  <!-- Shopping list items with checkboxes -->
  <g fill="#00A651">
    <!-- Item 1 -->
    <rect x="56" y="50" width="11" height="11" rx="1.7"/>
    <rect x="73" y="53" width="45" height="5" rx="2.5"/>
    
    <!-- Item 2 -->
    <rect x="56" y="73" width="11" height="11" rx="1.7"/>
    <rect x="73" y="76" width="34" height="5" rx="2.5"/>
    
    <!-- Item 3 -->
    <rect x="56" y="96" width="11" height="11" rx="1.7"/>
    <rect x="73" y="99" width="39" height="5" rx="2.5"/>
    
    <!-- Item 4 -->
    <rect x="56" y="119" width="11" height="11" rx="1.7"/>
    <rect x="73" y="122" width="28" height="5" rx="2.5"/>
  </g>
  
  <!-- Convenience indicator - checkmark in circle -->
  <circle cx="123" cy="135" r="22" fill="#00A651"/>
  <path d="M112 135 L120 143 L134 126" stroke="white" stroke-width="8" fill="none" stroke-linecap="round" stroke-linejoin="round"/>
</svg>