<svg xmlns="http://www.w3.org/2000/svg" width="32" height="32" viewBox="0 0 512 512" fill="none">
  <rect width="512" height="512" rx="256" fill="#58CC02"/>
  <path d="M170.667 128C170.667 116.954 179.621 108 190.667 108H321.333C332.379 108 341.333 116.954 341.333 128V384C341.333 395.046 332.379 404 321.333 404H190.667C179.621 404 170.667 395.046 170.667 384V128Z" fill="white"/>
  <path d="M192 149.333H320V362.667H192V149.333Z" fill="#58CC02"/>
  <path d="M213.333 170.667H234.667V192H213.333V170.667Z" fill="white"/>
  <path d="M256 170.667H298.667V192H256V170.667Z" fill="white"/>
  <path d="M213.333 213.333H256V234.667H213.333V213.333Z" fill="white"/>
  <path d="M277.333 213.333H298.667V234.667H277.333V213.333Z" fill="white"/>
  <path d="M213.333 256H234.667V277.333H213.333V256Z" fill="white"/>
  <path d="M256 256H298.667V277.333H256V256Z" fill="white"/>
  <path d="M213.333 298.667H256V320H213.333V298.667Z" fill="white"/>
  <path d="M277.333 298.667H298.667V320H277.333V298.667Z" fill="white"/>
  <path d="M213.333 341.333H234.667V362.667H213.333V341.333Z" fill="white"/>
  <path d="M256 341.333H298.667V362.667H256V341.333Z" fill="white"/>
</svg>