<svg xmlns="http://www.w3.org/2000/svg" width="32" height="32" viewBox="0 0 32 32">
  <!-- Shopping list clipboard -->
  <rect x="6" y="4" width="20" height="26" rx="2" ry="2" fill="#00A651" stroke="#00A651" stroke-width="1"/>
  <rect x="8" y="6" width="16" height="22" fill="white"/>
  
  <!-- Clipboard clip -->
  <rect x="12" y="2" width="8" height="4" rx="1" ry="1" fill="#00A651"/>
  
  <!-- Shopping list items with checkboxes -->
  <g fill="#00A651">
    <!-- Item 1 -->
    <rect x="10" y="9" width="2" height="2" rx="0.3"/>
    <rect x="13" y="9.5" width="8" height="1" rx="0.5"/>
    
    <!-- Item 2 -->
    <rect x="10" y="13" width="2" height="2" rx="0.3"/>
    <rect x="13" y="13.5" width="6" height="1" rx="0.5"/>
    
    <!-- Item 3 -->
    <rect x="10" y="17" width="2" height="2" rx="0.3"/>
    <rect x="13" y="17.5" width="7" height="1" rx="0.5"/>
    
    <!-- Item 4 -->
    <rect x="10" y="21" width="2" height="2" rx="0.3"/>
    <rect x="13" y="21.5" width="5" height="1" rx="0.5"/>
  </g>
  
  <!-- Convenience indicator - checkmark in circle -->
  <circle cx="22" cy="24" r="4" fill="#00A651"/>
  <path d="M20 24 L21.5 25.5 L24 22.5" stroke="white" stroke-width="1.5" fill="none" stroke-linecap="round" stroke-linejoin="round"/>
</svg>