<svg xmlns="http://www.w3.org/2000/svg" width="192" height="192" viewBox="0 0 192 192">
  <!-- Shopping list clipboard -->
  <rect x="36" y="24" width="120" height="156" rx="12" ry="12" fill="#00A651" stroke="#00A651" stroke-width="6"/>
  <rect x="48" y="36" width="96" height="132" fill="white"/>
  
  <!-- Clipboard clip -->
  <rect x="72" y="12" width="48" height="24" rx="6" ry="6" fill="#00A651"/>
  
  <!-- Shopping list items with checkboxes -->
  <g fill="#00A651">
    <!-- Item 1 -->
    <rect x="60" y="54" width="12" height="12" rx="1.8"/>
    <rect x="78" y="57" width="48" height="6" rx="3"/>
    
    <!-- Item 2 -->
    <rect x="60" y="78" width="12" height="12" rx="1.8"/>
    <rect x="78" y="81" width="36" height="6" rx="3"/>
    
    <!-- Item 3 -->
    <rect x="60" y="102" width="12" height="12" rx="1.8"/>
    <rect x="78" y="105" width="42" height="6" rx="3"/>
    
    <!-- Item 4 -->
    <rect x="60" y="126" width="12" height="12" rx="1.8"/>
    <rect x="78" y="129" width="30" height="6" rx="3"/>
  </g>
  
  <!-- Convenience indicator - checkmark in circle -->
  <circle cx="132" cy="144" r="24" fill="#00A651"/>
  <path d="M120 144 L129 153 L144 135" stroke="white" stroke-width="9" fill="none" stroke-linecap="round" stroke-linejoin="round"/>
</svg>