<svg xmlns="http://www.w3.org/2000/svg" width="512" height="512" viewBox="0 0 512 512">
  <!-- Shopping list clipboard -->
  <rect x="96" y="64" width="320" height="416" rx="32" ry="32" fill="#00A651" stroke="#00A651" stroke-width="16"/>
  <rect x="128" y="96" width="256" height="352" fill="white"/>
  
  <!-- Clipboard clip -->
  <rect x="192" y="32" width="128" height="64" rx="16" ry="16" fill="#00A651"/>
  
  <!-- Shopping list items with checkboxes -->
  <g fill="#00A651">
    <!-- Item 1 -->
    <rect x="160" y="144" width="32" height="32" rx="4.8"/>
    <rect x="208" y="152" width="128" height="16" rx="8"/>
    
    <!-- Item 2 -->
    <rect x="160" y="208" width="32" height="32" rx="4.8"/>
    <rect x="208" y="216" width="96" height="16" rx="8"/>
    
    <!-- Item 3 -->
    <rect x="160" y="272" width="32" height="32" rx="4.8"/>
    <rect x="208" y="280" width="112" height="16" rx="8"/>
    
    <!-- Item 4 -->
    <rect x="160" y="336" width="32" height="32" rx="4.8"/>
    <rect x="208" y="344" width="80" height="16" rx="8"/>
  </g>
  
  <!-- Convenience indicator - checkmark in circle -->
  <circle cx="352" cy="384" r="64" fill="#00A651"/>
  <path d="M320 384 L344 408 L384 360" stroke="white" stroke-width="24" fill="none" stroke-linecap="round" stroke-linejoin="round"/>
</svg>